<?xml version="1.0" encoding="UTF-8" standalone="no"?>
<svg width="59.2667mm" height="37.0417mm"
 xmlns="http://www.w3.org/2000/svg" xmlns:xlink="http://www.w3.org/1999/xlink"  version="1.2" baseProfile="tiny">
<defs>
</defs>
<g fill="none" stroke="black" stroke-width="1" fill-rule="evenodd" stroke-linecap="square" stroke-linejoin="bevel" >

<g fill="#000000" fill-opacity="1" stroke="#000000" stroke-opacity="1" stroke-width="1" stroke-linecap="butt" stroke-linejoin="miter" stroke-miterlimit="2" transform="matrix(1,0,0,1,0,0)"
>
</g>

<g fill="#000000" fill-opacity="1" stroke="#000000" stroke-opacity="1" stroke-width="1" stroke-linecap="butt" stroke-linejoin="miter" stroke-miterlimit="2" transform="matrix(1,0,0,1,0,0)"
>
</g>

<g fill="#000000" fill-opacity="1" stroke="#000000" stroke-opacity="1" stroke-width="1" stroke-linecap="butt" stroke-linejoin="miter" stroke-miterlimit="2" transform="matrix(1,0,0,1,0,0)"
>
</g>

<g fill="#000000" fill-opacity="1" stroke="#000000" stroke-opacity="1" stroke-width="1" stroke-linecap="butt" stroke-linejoin="miter" stroke-miterlimit="2" transform="matrix(0.646,0,0,0.646,42.232,16.382)"
>
</g>

<g fill="#000000" fill-opacity="1" stroke="#000000" stroke-opacity="1" stroke-width="1" stroke-linecap="butt" stroke-linejoin="miter" stroke-miterlimit="2" transform="matrix(0.646,0,0,0.646,42.232,16.382)"
>
</g>

<g fill="#000000" fill-opacity="1" stroke="#000000" stroke-opacity="1" stroke-width="1" stroke-linecap="butt" stroke-linejoin="miter" stroke-miterlimit="2" transform="matrix(1.04399,0,0,1.04399,79.7617,16.382)"
>
</g>

<g fill="#000000" fill-opacity="1" stroke="#000000" stroke-opacity="1" stroke-width="1" stroke-linecap="butt" stroke-linejoin="miter" stroke-miterlimit="2" transform="matrix(1.04399,0,0,1.04399,79.7617,16.382)"
>
</g>

<g fill="#000000" fill-opacity="1" stroke="#000000" stroke-opacity="1" stroke-width="1" stroke-linecap="butt" stroke-linejoin="miter" stroke-miterlimit="2" transform="matrix(1.04399,0,0,1.04399,65.0207,6.54766)"
>
</g>

<g fill="#00baed" fill-opacity="1" stroke="none" transform="matrix(1.04399,0,0,1.04399,65.0207,6.54766)"
>
<path vector-effect="none" fill-rule="nonzero" d="M45.13,9.42 L14.25,27.1 L14.12,62.68 L44.87,80.58 L75.75,62.9 L75.88,27.32 L45.13,9.42 M16.13,61.53 L16.25,28.26 L45.12,11.73 L73.87,28.47 L45,45 L44.88,78.27 L16.13,61.53"/>
</g>

<g fill="#000000" fill-opacity="1" stroke="#000000" stroke-opacity="1" stroke-width="1" stroke-linecap="butt" stroke-linejoin="miter" stroke-miterlimit="2" transform="matrix(1.04399,0,0,1.04399,65.0207,6.54766)"
>
</g>

<g fill="#000000" fill-opacity="1" stroke="#000000" stroke-opacity="1" stroke-width="1" stroke-linecap="butt" stroke-linejoin="miter" stroke-miterlimit="2" transform="matrix(1.04399,0,0,1.04399,65.0207,6.54766)"
>
</g>

<g fill="#000000" fill-opacity="1" stroke="#000000" stroke-opacity="1" stroke-width="1" stroke-linecap="butt" stroke-linejoin="miter" stroke-miterlimit="2" transform="matrix(1,0,0,1,0,0)"
>
</g>

<g fill="#000000" fill-opacity="1" stroke="#000000" stroke-opacity="1" stroke-width="1" stroke-linecap="butt" stroke-linejoin="miter" stroke-miterlimit="2" transform="matrix(1,0,0,1,0,0)"
>
</g>

<g fill="#000000" fill-opacity="1" stroke="#000000" stroke-opacity="1" stroke-width="1" stroke-linecap="butt" stroke-linejoin="miter" stroke-miterlimit="2" transform="matrix(0.646,0,0,0.646,42.232,16.382)"
>
</g>

<g fill="#000000" fill-opacity="1" stroke="#000000" stroke-opacity="1" stroke-width="1" stroke-linecap="butt" stroke-linejoin="miter" stroke-miterlimit="2" transform="matrix(1.04399,0,0,1.04399,79.7617,16.382)"
>
</g>

<g fill="#000000" fill-opacity="1" stroke="#000000" stroke-opacity="1" stroke-width="1" stroke-linecap="butt" stroke-linejoin="miter" stroke-miterlimit="2" transform="matrix(1.04399,0,0,1.04399,79.7617,16.382)"
>
</g>

<g fill="#000000" fill-opacity="1" stroke="#000000" stroke-opacity="1" stroke-width="1" stroke-linecap="butt" stroke-linejoin="miter" stroke-miterlimit="2" transform="matrix(1.04399,0,0,1.04399,79.7617,16.382)"
>
</g>

<g fill="#000000" fill-opacity="1" stroke="#000000" stroke-opacity="1" stroke-width="1" stroke-linecap="butt" stroke-linejoin="miter" stroke-miterlimit="2" transform="matrix(1,0,0,1,0,0)"
>
</g>

<g fill="#000000" fill-opacity="1" stroke="#000000" stroke-opacity="1" stroke-width="1" stroke-linecap="butt" stroke-linejoin="miter" stroke-miterlimit="2" transform="matrix(1,0,0,1,0,0)"
>
</g>

<g fill="#000000" fill-opacity="1" stroke="#000000" stroke-opacity="1" stroke-width="1" stroke-linecap="butt" stroke-linejoin="miter" stroke-miterlimit="2" transform="matrix(0.646,0,0,0.646,42.232,16.382)"
>
</g>

<g fill="#000000" fill-opacity="1" stroke="#000000" stroke-opacity="1" stroke-width="1" stroke-linecap="butt" stroke-linejoin="miter" stroke-miterlimit="2" transform="matrix(0.645283,0,0,0.645283,40.9888,100.627)"
>
</g>

<g fill="#00aeed" fill-opacity="1" stroke="none" transform="matrix(0.645283,0,0,0.645283,40.9888,100.627)"
>
<path vector-effect="none" fill-rule="nonzero" d="M18.77,16.63 L18.77,21.2 L8.49,21.2 C7.87,21.2 7.4,21.3567 7.08,21.67 C6.76667,21.9767 6.61,22.43 6.61,23.03 L6.61,35.63 L2.04,35.63 L2.04,23.03 C2.04,22.2433 2.14,21.54 2.34,20.92 C2.54,20.3 2.80667,19.75 3.14,19.27 C3.47333,18.7967 3.85667,18.3933 4.29,18.06 C4.72333,17.7267 5.17667,17.4533 5.65,17.24 C6.12333,17.0333 6.60333,16.88 7.09,16.78 C7.57667,16.68 8.03333,16.63 8.46,16.63 L18.77,16.63 M42.15,22.92 C42.15,23.5533 42.04,24.2367 41.82,24.97 C41.5933,25.7033 41.2333,26.3833 40.74,27.01 C40.24,27.6367 39.59,28.16 38.79,28.58 C37.9833,29 37.0067,29.21 35.86,29.21 L27.62,29.21 L27.62,24.87 L35.86,24.87 C36.48,24.87 36.96,24.68 37.3,24.3 C37.64,23.92 37.81,23.45 37.81,22.89 C37.81,22.29 37.62,21.82 37.24,21.48 C36.86,21.14 36.4,20.97 35.86,20.97 L27.62,20.97 C26.9933,20.97 26.51,21.16 26.17,21.54 C25.83,21.92 25.66,22.3933 25.66,22.96 L25.66,29.34 C25.66,29.9467 25.8533,30.42 26.24,30.76 C26.62,31.1 27.09,31.27 27.65,31.27 L35.86,31.27 L35.86,35.63 L27.62,35.63 C26.9867,35.63 26.3033,35.52 25.57,35.3 C24.8367,35.0733 24.1567,34.7133 23.53,34.22 C22.9033,33.72 22.38,33.0667 21.96,32.26 C21.5333,31.46 21.32,30.4867 21.32,29.34 L21.32,22.92 C21.32,22.2867 21.4333,21.6033 21.66,20.87 C21.88,20.1433 22.24,19.4633 22.74,18.83 C23.2333,18.2033 23.8833,17.68 24.69,17.26 C25.49,16.84 26.4667,16.63 27.62,16.63 L35.86,16.63 C36.4933,16.63 37.1767,16.74 37.91,16.96 C38.6433,17.1867 39.3233,17.5467 39.95,18.04 C40.5767,18.54 41.1,19.1933 41.52,20 C41.94,20.8 42.15,21.7733 42.15,22.92 M66.08,8.6 L66.08,29.21 C66.08,29.9967 65.98,30.7033 65.78,31.33 C65.58,31.9567 65.3167,32.51 64.99,32.99 C64.6567,33.4633 64.2733,33.8667 63.84,34.2 C63.4067,34.5333 62.9533,34.8067 62.48,35.02 C62.0067,35.2267 61.5267,35.38 61.04,35.48 C60.5533,35.58 60.0933,35.63 59.66,35.63 L51.42,35.63 C50.6333,35.63 49.93,35.53 49.31,35.33 C48.69,35.13 48.14,34.8633 47.66,34.53 C47.1867,34.1967 46.7833,33.8133 46.45,33.38 C46.1167,32.9467 45.8433,32.4933 45.63,32.02 C45.4233,31.5467 45.27,31.0667 45.17,30.58 C45.07,30.0933 45.02,29.6367 45.02,29.21 L45.02,23.03 C45.02,21.8567 45.2333,20.8633 45.66,20.05 C46.0867,19.2367 46.62,18.5733 47.26,18.06 C47.9,17.5533 48.5933,17.1867 49.34,16.96 C50.0933,16.74 50.7867,16.63 51.42,16.63 L59.66,16.63 L59.66,21.2 L51.45,21.2 C50.8433,21.2 50.38,21.3567 50.06,21.67 C49.7467,21.9767 49.59,22.43 49.59,23.03 L49.59,29.18 C49.59,29.8 49.7433,30.27 50.05,30.59 C50.3633,30.9033 50.82,31.06 51.42,31.06 L59.66,31.06 C60.28,31.06 60.7433,30.9033 61.05,30.59 C61.3567,30.27 61.51,29.81 61.51,29.21 L61.51,8.6 L66.08,8.6 M91.21,16.63 L91.21,33.33 C91.21,33.6567 91.1533,33.96 91.04,34.24 C90.92,34.52 90.7567,34.7633 90.55,34.97 C90.35,35.1767 90.11,35.34 89.83,35.46 C89.5567,35.5733 89.2633,35.63 88.95,35.63 L78.61,35.63 C78.05,35.63 77.45,35.5667 76.81,35.44 C76.17,35.3067 75.54,35.0967 74.92,34.81 C74.3,34.5233 73.7,34.16 73.12,33.72 C72.54,33.28 72.0333,32.7467 71.6,32.12 C71.1667,31.4933 70.8167,30.77 70.55,29.95 C70.2833,29.13 70.15,28.2067 70.15,27.18 L70.15,16.63 L74.72,16.63 L74.72,27.18 C74.72,27.7733 74.8233,28.3067 75.03,28.78 C75.2367,29.26 75.5167,29.67 75.87,30.01 C76.2167,30.35 76.63,30.61 77.11,30.79 C77.5833,30.97 78.0933,31.06 78.64,31.06 L86.64,31.06 L86.64,16.63 L91.21,16.63 M110.92,16.63 L117.21,16.63 L109,25.59 L118.25,35.63 L111.96,35.63 L105.87,29 L99.79,35.63 L93.48,35.63 L102.71,25.56 L94.54,16.63 L100.79,16.63 L105.84,22.13 L110.92,16.63 M136.3,20.97 L136.3,25.08 L119.81,25.08 L119.81,20.97 L136.3,20.97 M158.85,29.21 C158.85,29.9967 158.75,30.7033 158.55,31.33 C158.357,31.9567 158.093,32.51 157.76,32.99 C157.433,33.4633 157.053,33.8667 156.62,34.2 C156.187,34.5333 155.733,34.8067 155.26,35.02 C154.787,35.2267 154.307,35.38 153.82,35.48 C153.333,35.58 152.873,35.63 152.44,35.63 L140.06,35.63 L140.06,31.06 L152.4,31.06 C153.02,31.06 153.49,30.9033 153.81,30.59 C154.123,30.27 154.28,29.81 154.28,29.21 C154.227,27.9967 153.613,27.39 152.44,27.39 L145.35,27.39 C144.343,27.39 143.49,27.2133 142.79,26.86 C142.083,26.5067 141.51,26.0667 141.07,25.54 C140.63,25.0133 140.313,24.4467 140.12,23.84 C139.927,23.2267 139.83,22.6567 139.83,22.13 C139.83,21.11 140.013,20.2533 140.38,19.56 C140.74,18.86 141.197,18.2933 141.75,17.86 C142.303,17.4267 142.9,17.1133 143.54,16.92 C144.187,16.7267 144.79,16.63 145.35,16.63 L156.59,16.63 L156.59,21.2 L145.39,21.2 C145.157,21.2 144.97,21.2267 144.83,21.28 C144.697,21.3333 144.6,21.4033 144.54,21.49 C144.473,21.5767 144.433,21.67 144.42,21.77 C144.407,21.87 144.4,21.9667 144.4,22.06 C144.413,22.2467 144.45,22.3933 144.51,22.5 C144.57,22.6067 144.643,22.6833 144.73,22.73 C144.817,22.7767 144.917,22.8033 145.03,22.81 C145.143,22.8167 145.25,22.82 145.35,22.82 L152.44,22.82 C153.613,22.82 154.61,23.03 155.43,23.45 C156.25,23.87 156.91,24.4 157.41,25.04 C157.917,25.68 158.283,26.3733 158.51,27.12 C158.737,27.8733 158.85,28.57 158.85,29.21 M166.69,8.6 L166.69,12.73 L162.12,12.73 L162.12,8.6 L166.69,8.6 M166.69,16.63 L166.69,35.63 L162.12,35.63 L162.12,16.63 L166.69,16.63 M192.13,25.08 L192.13,35.63 L187.56,35.63 L187.56,25.08 C187.56,24.4867 187.457,23.9533 187.25,23.48 C187.043,23 186.767,22.59 186.42,22.25 C186.067,21.91 185.653,21.65 185.18,21.47 C184.7,21.29 184.187,21.2 183.64,21.2 L175.64,21.2 L175.64,35.63 L171.07,35.63 L171.07,18.9 C171.07,18.58 171.13,18.2833 171.25,18.01 C171.363,17.7367 171.527,17.4967 171.74,17.29 C171.947,17.0833 172.193,16.92 172.48,16.8 C172.76,16.6867 173.057,16.63 173.37,16.63 L183.67,16.63 C184.25,16.63 184.857,16.6933 185.49,16.82 C186.13,16.9533 186.763,17.1633 187.39,17.45 C188.017,17.7367 188.613,18.1 189.18,18.54 C189.753,18.98 190.26,19.5133 190.7,20.14 C191.14,20.7667 191.487,21.49 191.74,22.31 C192,23.13 192.13,24.0533 192.13,25.08 M207.7,25.26 L218.46,35.63 L211.87,35.63 L202.66,26.74 C202.14,26.2667 201.9,25.68 201.94,24.98 C201.96,24.6533 202.043,24.3467 202.19,24.06 C202.337,23.7733 202.54,23.53 202.8,23.33 L211.15,16.59 L218.46,16.59 L207.7,25.26 M200.78,8.6 L200.78,35.63 L196.21,35.63 L196.21,8.6 L200.78,8.6"/>
</g>

<g fill="#000000" fill-opacity="1" stroke="#000000" stroke-opacity="1" stroke-width="1" stroke-linecap="butt" stroke-linejoin="miter" stroke-miterlimit="2" transform="matrix(0.645283,0,0,0.645283,40.9888,100.627)"
>
</g>

<g fill="#000000" fill-opacity="1" stroke="#000000" stroke-opacity="1" stroke-width="1" stroke-linecap="butt" stroke-linejoin="miter" stroke-miterlimit="2" transform="matrix(0.646,0,0,0.646,42.232,16.382)"
>
</g>

<g fill="#000000" fill-opacity="1" stroke="#000000" stroke-opacity="1" stroke-width="1" stroke-linecap="butt" stroke-linejoin="miter" stroke-miterlimit="2" transform="matrix(1,0,0,1,0,0)"
>
</g>

<g fill="#000000" fill-opacity="1" stroke="#000000" stroke-opacity="1" stroke-width="1" stroke-linecap="butt" stroke-linejoin="miter" stroke-miterlimit="2" transform="matrix(1,0,0,1,0,0)"
>
</g>

<g fill="#000000" fill-opacity="1" stroke="#000000" stroke-opacity="1" stroke-width="1" stroke-linecap="butt" stroke-linejoin="miter" stroke-miterlimit="2" transform="matrix(1,0,0,1,0,0)"
>
</g>
</g>
</svg>
